<svg width="55" height="55" fill="none" xmlns="http://www.w3.org/2000/svg"><path d="M1.16 54.56c.741-2.224 1.44-4.308 2.138-6.392.698-2.063 1.321-4.157 2.116-6.188.408-1.03.28-1.804-.236-2.771-2.815-5.22-3.653-10.817-2.675-16.64.827-4.93 2.922-9.292 6.306-12.998C14.384 3.481 21.345.56 29.573.902c6.027.247 11.355 2.45 15.899 6.435 4.232 3.706 6.993 8.314 8.271 13.793 1.031 4.415.913 8.809-.354 13.16-1.612 5.51-4.695 10.054-9.282 13.513-6.37 4.812-13.513 6.305-21.301 4.79-2.342-.45-4.576-1.288-6.682-2.427-.344-.183-.634-.226-1.01-.097-3.996 1.29-8.003 2.568-11.999 3.846-.601.193-1.214.398-1.955.645zm6.8-6.736c.215-.053.311-.075.408-.107 2.503-.795 5.006-1.6 7.52-2.374.236-.075.558-.011.784.096 1.085.538 2.127 1.182 3.244 1.655 4.598 1.944 9.335 2.256 14.126.924 5.715-1.601 10.098-5.006 13.095-10.152 2.567-4.404 3.448-9.163 2.653-14.169-1.01-6.37-4.275-11.376-9.679-14.931-4.683-3.073-9.84-4.115-15.34-3.245-4.737.752-8.787 2.912-12.127 6.37-2.869 2.965-4.791 6.467-5.63 10.496-1.192 5.768-.31 11.225 2.89 16.199.645.999.623 1.762.237 2.782-.785 2.095-1.44 4.233-2.181 6.456z" fill="#fff"/><path d="M41.82 34.568c-.033 2.074-1.01 3.653-2.987 4.641-1.944.967-3.92 1.214-5.951.419-1.826-.72-3.674-1.418-5.436-2.288-2.32-1.15-4.221-2.868-5.962-4.77a34.403 34.403 0 01-4.898-6.95c-.956-1.772-1.536-3.652-1.332-5.715.215-2.191 1.235-3.942 2.954-5.263.344-.258.86-.376 1.3-.42.57-.042 1.139.044 1.708.087.473.043.73.376.891.762.42 1.031.795 2.063 1.193 3.105.268.698.473 1.429.795 2.105.397.838.15 1.536-.365 2.18-.44.549-.903 1.075-1.408 1.548-.419.397-.494.805-.215 1.289 1.236 2.202 2.74 4.179 4.727 5.78 1.31 1.052 2.76 1.836 4.265 2.567.44.214.87.182 1.213-.215.742-.849 1.494-1.687 2.224-2.546.473-.548.71-.655 1.343-.333 1.837.924 3.652 1.88 5.478 2.836.43.236.538.623.462 1.181z" fill="#fff"/></svg>