<svg width="60" height="60" fill="none" xmlns="http://www.w3.org/2000/svg"><path d="M29.358 44.508h3.079s.928-.1 1.401-.608c.45-.474.45-1.35.45-1.35s-.066-4.13 1.863-4.736c1.9-.602 4.311 3.986 6.88 5.75 1.963 1.347 3.44 1.058 3.44 1.058l6.88-.095s3.605-.225 1.901-3.055c-.13-.225-.966-2.09-5.08-5.915-4.312-3.988-3.734-3.345 1.448-10.258 3.148-4.21 4.436-6.784 4.018-7.877-.356-1.028-2.7-.773-2.7-.773l-7.719.066s-.578-.066-.996.193c-.418.255-.673.838-.673.838s-1.226 3.276-2.863 6.043c-3.478 5.848-4.86 6.169-5.406 5.783-1.295-.837-.963-3.385-.963-5.211 0-5.66.866-8.036-1.673-8.647-.836-.195-1.46-.321-3.61-.355-2.765-.03-5.097.021-6.419.666-.868.435-1.543 1.397-1.155 1.447.515.064 1.67.312 2.28 1.15.804 1.084.77 3.506.77 3.506s.452 6.677-1.06 7.506c-1.06.562-2.474-.6-5.56-5.905-1.575-2.7-2.766-5.722-2.766-5.722s-.225-.548-.641-.87c-.486-.353-1.194-.482-1.194-.482l-7.36.064s-1.093.035-1.477.515c-.356.417-.034 1.317-.034 1.317s5.756 13.473 12.283 20.257c5.978 6.219 12.763 5.818 12.763 5.818l-.107-.118z" fill="#fff"/></svg>