<svg width="55" height="55" fill="none" xmlns="http://www.w3.org/2000/svg"><path d="M54.248 27.607c0 3.739-.075 7.488.022 11.226.16 6.617-3.997 11.73-9.293 14.008-2.126.913-4.36 1.396-6.67 1.396-7.23.011-14.47.108-21.7-.032-5.446-.107-9.925-2.385-13.137-6.875C1.783 44.967.978 42.281.978 39.37V16.274C.978 9.99 4.039 5.597 9.475 2.74 11.838 1.504 14.405.978 17.08.967c7.015 0 14.04-.043 21.055.021 5.446.043 9.99 2.127 13.342 6.51 1.869 2.45 2.771 5.264 2.771 8.357v11.752zm-49.307 0v11.817c0 1.761.409 3.416 1.322 4.909 2.395 3.92 6.015 5.833 10.506 5.908 7.208.108 14.426.043 21.645.022 1.773 0 3.491-.365 5.092-1.128 4.361-2.084 6.8-5.404 6.778-10.388-.043-7.627-.01-15.254-.01-22.88 0-2.16-.613-4.137-1.891-5.877-2.47-3.34-5.887-4.984-9.969-5.027-7.197-.086-14.395-.032-21.592-.022-1.536 0-3.018.312-4.458.849-3.953 1.472-7.627 5.2-7.455 10.689.13 3.716.032 7.422.032 11.128z" fill="#fff"/><path d="M27.672 38.994c-6.929 0-12.515-5.521-12.526-12.396-.01-6.768 5.619-12.31 12.504-12.31 6.908-.012 12.515 5.52 12.526 12.342 0 6.81-5.597 12.353-12.504 12.364zm0-3.974c4.716 0 8.54-3.771 8.53-8.412-.012-4.597-3.836-8.357-8.53-8.357-4.716 0-8.562 3.749-8.562 8.379.011 4.64 3.846 8.4 8.562 8.39zm13.954-24.493c1.45 0 2.632 1.236 2.632 2.75-.01 1.515-1.203 2.74-2.654 2.729-1.428-.01-2.6-1.236-2.6-2.718-.01-1.515 1.172-2.76 2.622-2.76z" fill="#fff"/></svg>