<svg width="60" height="60" fill="none" xmlns="http://www.w3.org/2000/svg"><path d="M28.125 15.614a4.412 4.412 0 014.408 4.408 4.412 4.412 0 01-4.408 4.406 4.414 4.414 0 01-4.408-4.406 4.414 4.414 0 014.408-4.408zm0 15.05c5.873 0 10.646-4.773 10.646-10.642 0-5.872-4.773-10.647-10.646-10.647-5.87 0-10.645 4.775-10.645 10.647 0 5.869 4.774 10.643 10.645 10.643zm4.307 8.685a19.939 19.939 0 006.182-2.56 3.12 3.12 0 00.978-4.3 3.117 3.117 0 00-4.3-.982 13.515 13.515 0 01-14.334 0 3.115 3.115 0 00-4.3.981 3.119 3.119 0 00.977 4.3 19.968 19.968 0 006.182 2.562l-5.952 5.95a3.12 3.12 0 004.413 4.41l5.846-5.848 5.851 5.848a3.117 3.117 0 004.41 0 3.116 3.116 0 000-4.41l-5.953-5.952z" fill="#fff"/></svg>